<svg width="187" height="152" viewBox="0 0 187 152" fill="none" xmlns="http://www.w3.org/2000/svg">
<path d="M181 147C181 149.761 141.825 152 93.5 152C45.1751 152 6 149.761 6 147C6 144.239 45.1751 142 93.5 142C141.825 142 181 144.239 181 147Z" fill="#F3F2F1"/>
<rect x="39" width="110" height="110" rx="55" fill="#E0FFF4"/>
<path d="M74.75 57.75L85.75 68.75L113.25 41.25" stroke="#1E8560" stroke-width="6" stroke-linecap="round" stroke-linejoin="round"/>
<path d="M87.691 147C93.3165 147 97.8769 137.966 97.8769 126.822C97.8769 115.678 93.3165 106.644 87.691 106.644H74.6221V147H87.691Z" fill="#2B2F36"/>
<path d="M64.3877 126.822C64.3877 115.678 68.9481 106.644 74.5736 106.644C80.1991 106.644 84.7595 115.678 84.7595 126.822C84.7595 137.966 80.1991 147 74.5736 147C68.9481 147 64.3877 137.966 64.3877 126.822Z" fill="#2B2F36"/>
<path d="M162.388 147C168.014 147 172.575 137.966 172.575 126.822C172.575 115.678 168.014 106.644 162.388 106.644H149.319V147H162.388Z" fill="#2B2F36"/>
<path d="M139.085 126.822C139.085 115.678 143.645 106.644 149.271 106.644C154.897 106.644 159.457 115.678 159.457 126.822C159.457 137.966 154.897 147 149.271 147C143.645 147 139.085 137.966 139.085 126.822Z" fill="#2B2F36"/>
<path d="M20.916 136.838L13.9392 135.122C11.5501 134.534 9.5424 132.922 8.45233 130.716L8.44762 130.706C7.97177 129.744 7.31476 128.882 6.51253 128.168L4.79845 126.644C2.80989 124.875 1.78443 122.264 2.03802 119.614L2.98266 109.747C3.30697 106.359 5.65666 103.508 8.92009 102.541L13.9062 101.066L31.9016 99.7854L20.916 136.838Z" fill="#396CE5"/>
<path d="M36.1324 147C41.7579 147 46.3183 137.966 46.3183 126.822C46.3183 115.678 41.7579 106.644 36.1324 106.644H23.0635V147H36.1324Z" fill="#2B2F36"/>
<path d="M12.8291 126.822C12.8291 115.678 17.3896 106.644 23.0152 106.644C28.6407 106.644 33.2012 115.678 33.2012 126.822C33.2012 137.966 28.6407 147 23.0152 147C17.3896 147 12.8291 137.966 12.8291 126.822Z" fill="#2B2F36"/>
<path d="M15.8691 126.822C15.8691 118.013 19.0688 110.872 23.0155 110.872C26.9623 110.872 30.1618 118.013 30.1618 126.822C30.1618 135.632 26.9623 142.772 23.0155 142.772C19.0688 142.772 15.8691 135.632 15.8691 126.822Z" fill="#D7DBE0"/>
<path d="M126.39 136.838L143.981 97.5251C143.981 97.5251 117.658 77.9287 84.2873 77.9287C30.1617 77.9287 32.0197 85.2258 13.9062 101.066L21.8126 106.644C35.8792 106.644 37.052 128.943 39.3006 135.215C39.649 136.187 40.5681 136.838 41.6012 136.838H126.39Z" fill="#396CE5"/>
<path d="M110.831 147C116.457 147 121.017 137.966 121.017 126.822C121.017 115.678 116.457 106.644 110.831 106.644H97.7617V147H110.831Z" fill="#2B2F36"/>
<path d="M87.5273 126.822C87.5273 115.678 92.0878 106.644 97.7133 106.644C103.339 106.644 107.9 115.678 107.9 126.822C107.9 137.966 103.339 147 97.7133 147C92.0878 147 87.5273 137.966 87.5273 126.822Z" fill="#2B2F36"/>
<path d="M90.5664 126.822C90.5664 118.013 93.766 110.872 97.7126 110.872C101.66 110.872 104.859 118.013 104.859 126.822C104.859 135.632 101.66 142.772 97.7126 142.772C93.766 142.772 90.5664 135.632 90.5664 126.822Z" fill="#D7DBE0"/>
<path d="M115.893 133.593C114.272 126.228 106.522 106.667 97.2297 106.667L87.165 97.525C87.165 97.525 136.479 97.525 143.981 97.525C147.916 97.525 165.384 99.9388 175.283 106.644C183.28 112.061 184.252 120.279 185.415 132.29C185.652 134.743 183.506 136.85 180.796 136.851C158.03 136.861 130.478 136.94 120.449 136.97C118.235 136.977 116.327 135.564 115.893 133.593Z" fill="#396CE5"/>
<path d="M139.873 97.5254C131.686 97.5254 115.2 97.5254 102.834 97.5254C101.097 97.5254 99.456 96.6822 98.4839 95.2418C94.3612 89.1346 87.065 82.9465 81.7197 80.0155C119.166 80.0155 139.873 97.5254 139.873 97.5254Z" fill="#E0E9FF"/>
<path d="M91.9052 97.5254C88.9562 97.5254 87.1651 97.5254 87.1651 97.5254H73.1542C75.0826 93.193 76.5778 89.2167 76.7394 86.4118C74.7041 86.2605 73.1223 86.1425 71.8939 86.0513C74.0509 86.2116 75.8846 86.3472 76.7403 86.4096C76.845 85.5327 76.8126 83.255 76.9271 80.1852C78.3195 80.4469 79.6431 81.0154 80.8042 81.8554C85.2982 85.1053 90.4042 90.1448 93.2706 95.152C93.8758 96.2089 93.1228 97.5254 91.9052 97.5254ZM61.0327 97.5254H55.5576L59.476 80.3298C59.8321 80.3136 60.194 80.2988 60.5572 80.2858C61.0439 80.2435 61.6303 80.2081 62.289 80.1775C62.333 81.7948 62.43 83.5212 62.5947 85.3581C63.9844 85.4622 65.7516 85.5938 67.5754 85.7298L62.5947 85.3594C62.5947 85.3594 61.7978 90.9674 61.0327 97.5254Z" fill="#E0E9FF"/>
<path d="M53.4043 97.5252H31.2225C25.0022 97.5252 26.7905 82.5391 57.2944 80.4544L53.4043 97.5252Z" fill="#E0E9FF"/>
<path d="M122.313 128.084L141.766 129.552C142.395 129.6 142.881 130.124 142.881 130.754V132.083C142.881 132.749 142.341 133.289 141.675 133.289H122.223C121.556 133.289 121.017 132.749 121.017 132.083V129.287C121.017 128.585 121.613 128.031 122.313 128.084Z" fill="#2B2F36"/>
<path d="M184.153 128.368L178.795 129.443C178.232 129.555 177.826 130.05 177.826 130.625V132.084C177.826 132.75 178.366 133.29 179.032 133.29H184.692C185.415 133.29 185.975 132.659 185.89 131.941L185.588 129.407C185.504 128.708 184.843 128.229 184.153 128.368Z" fill="#2B2F36"/>
<path d="M123.456 110.118C122.641 110.118 121.803 110.078 120.946 109.989C110.882 108.952 111.159 104.14 111.159 104.14L138.322 105.46C138.322 105.46 132.202 110.118 123.456 110.118Z" fill="#E0E9FF"/>
<path d="M3.2002 108.489C3.29143 108.128 3.40628 107.776 3.54309 107.434H3.54417C3.407 107.775 3.29175 108.128 3.2002 108.489Z" fill="#C1C4C9"/>
<path d="M3.03955 114.019C2.96358 114.019 2.88518 114.013 2.80414 113.999C2.72857 113.987 2.65857 113.97 2.58301 113.947L2.98463 109.744C3.02477 109.315 3.09774 108.896 3.20069 108.489C3.29224 108.128 3.4075 107.775 3.54467 107.434L5.38272 107.381C5.38272 107.381 5.46462 114.019 3.03955 114.019Z" fill="#396CE5"/>
<path d="M176.509 107.54C176.12 107.233 175.711 106.934 175.282 106.644C174.737 106.275 174.168 105.918 173.58 105.574C174.168 105.916 174.737 106.272 175.28 106.642C175.71 106.933 176.119 107.232 176.509 107.54Z" fill="white"/>
<path d="M176.193 110.118C170.951 110.118 167.283 105.46 167.283 105.46L172.609 105.03C172.938 105.207 173.262 105.389 173.58 105.574C174.169 105.918 174.737 106.275 175.283 106.644C175.711 106.934 176.12 107.233 176.51 107.539C177.382 108.227 178.157 108.954 178.849 109.727C178.494 109.832 178.109 109.919 177.696 109.989C177.183 110.077 176.681 110.118 176.193 110.118Z" fill="#E0E9FF"/>
<path d="M146.736 113.046H165.96C166.621 113.046 167.281 113.258 167.841 113.651L171.2 116.006C171.974 116.548 172.491 117.388 172.613 118.3L173.47 124.663C173.711 126.452 172.396 127.968 170.602 127.968H150.045C148.819 127.968 147.659 127.246 147.084 126.126L143.242 118.64C142.684 117.552 142.778 116.284 143.486 115.376L144.446 114.143C144.987 113.447 145.825 113.046 146.736 113.046Z" fill="#2B2F36"/>
<path d="M82.8071 132.546H68.7566C68.6134 131.272 68.4715 129.931 68.34 128.568H83.0015C83.5268 128.568 83.939 129.019 83.8923 129.542L83.6979 131.731C83.657 132.192 83.2704 132.546 82.8071 132.546ZM62.8752 132.546H58.8724C59.3394 131.263 59.827 129.922 60.3182 128.568H61.8825C62.0563 129.298 62.2332 130.021 62.4105 130.73C62.411 130.729 62.411 130.729 62.411 130.728C62.5659 131.347 62.7212 131.954 62.8752 132.546ZM52.683 132.546H45.2167C44.6918 132.546 44.2792 132.095 44.3259 131.572L44.5203 129.384C44.5616 128.922 44.9482 128.568 45.4115 128.568H53.5702C53.2537 129.966 52.9551 131.308 52.683 132.546Z" fill="#396CE5"/>
<path d="M57.3943 80.0152L59.647 79.5779L55.0416 99.7854H52.8887L57.3943 80.0152Z" fill="#396CE5"/>
<path d="M65.606 102.05H57.9103L57.7109 102.859C57.5039 103.698 58.0171 104.379 58.8563 104.379H63.5128C64.352 104.379 65.2001 103.698 65.4071 102.859L65.606 102.05Z" fill="#2B2F36"/>
<path d="M39.1227 102.05H31.4264L31.2275 102.859C31.0205 103.698 31.5333 104.379 32.3729 104.379H37.029C37.8686 104.379 38.7168 103.698 38.9233 102.859L39.1227 102.05Z" fill="#2B2F36"/>
<path d="M54.1693 125.954C54.0427 125.94 53.9435 125.835 53.9408 125.704L53.3867 99.7854H53.9008L54.4356 124.81C54.3462 125.193 54.2573 125.574 54.1693 125.954Z" fill="#396CE5"/>
<path d="M53.9004 99.7854H53.3863L53.3751 99.2484C53.3719 99.107 53.4846 98.9893 53.6261 98.9862H53.6319C53.7715 98.9862 53.8856 99.0975 53.8887 99.2376L53.9004 99.7854Z" fill="#396CE5"/>
</svg>
