<svg width="177" height="109" viewBox="0 0 177 109" fill="none" xmlns="http://www.w3.org/2000/svg">
<g clip-path="url(#clip0_48_3903)">
<path d="M153.811 85.4706C153.772 85.4209 153.733 85.3712 153.694 85.3213C153.655 85.2715 153.617 85.2215 153.578 85.1714C153.54 85.1213 153.501 85.071 153.463 85.0206C153.425 84.9703 153.387 84.9196 153.349 84.8686C153.286 83.408 153.285 81.9603 153.347 80.5254C153.407 79.1007 153.528 77.6932 153.711 76.3027C153.891 74.9227 154.13 73.564 154.428 72.2266C154.723 70.8995 155.075 69.5974 155.483 68.3203C155.53 68.1731 155.577 68.0264 155.626 67.8804C155.674 67.7343 155.723 67.5892 155.773 67.445C155.823 67.3002 155.874 67.156 155.925 67.0124C155.977 66.8689 156.029 66.7259 156.082 66.5834C156.475 65.517 156.909 64.4767 157.381 63.4626C157.851 62.4555 158.358 61.4763 158.902 60.5249C159.443 59.5802 160.019 58.6646 160.631 57.7781C161.239 56.8982 161.88 56.0491 162.555 55.2307L162.662 55.1023L162.768 54.9747L162.875 54.8476L162.983 54.7214L163.06 54.6307L163.138 54.5403C163.165 54.5104 163.191 54.4805 163.217 54.4507C163.244 54.421 163.271 54.3915 163.298 54.3624L163.362 54.3275L163.426 54.2929L163.489 54.2584L163.552 54.2241L163.556 54.2228L163.56 54.2209L163.564 54.219L163.568 54.2175L163.594 54.2037L163.619 54.1896L163.644 54.1756L163.668 54.1616L163.778 54.1028L163.888 54.0449L163.998 53.9872L164.107 53.929L164.024 53.8876L163.815 53.7843L163.816 53.7834C163.834 53.791 163.852 53.7991 163.87 53.8076C163.887 53.816 163.905 53.8242 163.923 53.8321C163.941 53.8404 163.958 53.8487 163.976 53.8569C163.993 53.8652 164.011 53.8736 164.029 53.8823L164.049 53.8909L164.069 53.8996L164.09 53.9083C164.097 53.9111 164.104 53.9143 164.11 53.9181C164.116 53.9212 164.122 53.9237 164.128 53.9257L164.146 53.9334L164.164 53.941L164.182 53.9486C164.943 54.2952 165.706 54.647 166.459 55.0159C167.212 55.3849 167.953 55.7694 168.675 56.1832C169.394 56.5939 170.092 57.0418 170.764 57.5252C171.434 58.0062 172.068 58.5347 172.662 59.1067C173.288 59.7148 173.848 60.3867 174.333 61.1113C174.813 61.8231 175.207 62.5882 175.508 63.3908C175.798 64.1549 175.97 64.9579 176.02 65.7729C176.068 66.5568 175.957 67.3423 175.694 68.0828C175.658 68.1793 175.62 68.2745 175.579 68.3684C175.538 68.4623 175.494 68.5547 175.447 68.6457C175.4 68.7367 175.351 68.8261 175.299 68.9139C175.247 69.0017 175.192 69.0879 175.134 69.1725C175.11 69.2078 175.086 69.2427 175.061 69.2774C175.036 69.312 175.011 69.3463 174.985 69.3803C174.96 69.4144 174.934 69.4482 174.907 69.482C174.881 69.5157 174.855 69.5492 174.828 69.5824C174.329 70.205 173.696 70.7077 172.975 71.0531C172.25 71.3974 171.462 71.5916 170.659 71.6238C169.815 71.6589 168.972 71.5373 168.173 71.2653C167.316 70.9746 166.52 70.5307 165.824 69.9556C165.583 69.7579 165.355 69.5456 165.141 69.3199C164.928 69.0962 164.73 68.8596 164.548 68.6115C164.367 68.3656 164.201 68.1085 164.053 67.8419C163.905 67.5772 163.775 67.3034 163.663 67.022C163.611 67.896 163.747 68.7711 164.064 69.5883C164.398 70.4474 164.851 71.2555 165.412 71.989C166.004 72.77 166.66 73.5003 167.375 74.1722C168.094 74.8578 168.859 75.5004 169.613 76.0922C170.368 76.6841 171.15 77.2894 171.906 77.9207C172.662 78.5413 173.382 79.2044 174.061 79.9066C174.721 80.585 175.304 81.3326 175.8 82.1362C176.288 82.9294 176.641 83.7973 176.845 84.7048C177.062 85.6934 177.051 86.7181 176.812 87.7018C176.696 88.1803 176.531 88.6458 176.319 89.0907C176.105 89.5393 175.849 89.9666 175.554 90.3671L175.526 90.4037L175.499 90.4402L175.47 90.4765L175.442 90.5127C174.722 91.4478 173.818 92.2277 172.785 92.8048C172.265 93.0952 171.717 93.333 171.15 93.5146C170.569 93.7004 169.97 93.8284 169.364 93.8965C168.209 94.0022 167.046 93.936 165.911 93.7001C164.743 93.457 163.607 93.0794 162.527 92.575C161.41 92.0556 160.343 91.4374 159.337 90.7279C158.323 90.0146 157.363 89.2284 156.464 88.3755C156.226 88.1494 155.991 87.9191 155.761 87.6847C155.531 87.4502 155.305 87.2119 155.084 86.9697C154.862 86.7273 154.645 86.4813 154.434 86.2316C154.222 85.9818 154.014 85.7282 153.811 85.4706Z" fill="#F2F2F2"/>
<path d="M172.367 68.547C171.654 68.1791 170.968 67.7609 170.315 67.2955C169.01 66.3662 167.845 65.2579 166.853 64.0035C166.361 63.3812 165.916 62.724 165.521 62.0372C165.191 61.457 164.898 60.8567 164.644 60.24C164.395 59.6382 164.187 59.0212 164.019 58.3926C163.855 57.7787 163.733 57.1545 163.654 56.5243C163.576 55.907 163.541 55.285 163.551 54.663C163.552 54.6279 163.553 54.593 163.554 54.5584C163.554 54.5238 163.555 54.489 163.556 54.4539C163.557 54.4188 163.558 54.3842 163.56 54.35L163.565 54.2466C163.535 54.2701 163.505 54.2938 163.476 54.3177L163.386 54.3898L163.297 54.4626L163.209 54.5354L163.152 54.5822L163.095 54.6294L163.038 54.6769L162.982 54.7244L163.059 54.634L163.139 54.5406C163.165 54.5106 163.191 54.4807 163.218 54.4509C163.244 54.4212 163.271 54.3917 163.298 54.3626L163.362 54.3278L163.426 54.2932L163.488 54.2587L163.552 54.2243L163.556 54.2231L163.56 54.2212L163.564 54.2193L163.568 54.2178L163.593 54.204L163.618 54.19L163.643 54.176L163.667 54.162L163.778 54.1032L163.887 54.0453L163.997 53.9876L164.107 53.9297L164.021 53.8874L163.812 53.7839L163.814 53.783C163.832 53.7907 163.85 53.7987 163.867 53.8072C163.885 53.8156 163.903 53.8238 163.92 53.8317C163.938 53.84 163.956 53.8483 163.974 53.8565C163.991 53.8648 164.009 53.8732 164.026 53.8819L164.046 53.8905L164.067 53.8992L164.088 53.9079C164.094 53.9106 164.101 53.9139 164.107 53.9176L164.106 53.9506L164.103 53.9815L164.101 54.0122L164.1 54.0434C164.023 55.0912 164.078 56.1445 164.263 57.1788C164.454 58.2434 164.768 59.2827 165.197 60.2763C165.641 61.3048 166.196 62.2823 166.852 63.1917C167.53 64.1324 168.307 64.9987 169.17 65.776C170.038 66.5476 170.985 67.2268 171.996 67.8024C172.495 68.0866 173.009 68.3443 173.535 68.5744C174.057 68.8022 174.591 69.0016 175.135 69.1718C175.111 69.2071 175.087 69.2421 175.062 69.2767C175.037 69.3113 175.012 69.3456 174.986 69.3797C174.961 69.4137 174.935 69.4476 174.908 69.4813C174.882 69.5151 174.855 69.5486 174.829 69.5818C174.619 69.5127 174.41 69.4393 174.203 69.3614C173.995 69.2836 173.789 69.2015 173.583 69.1151C173.378 69.0288 173.174 68.9381 172.971 68.8432C172.769 68.7483 172.567 68.6496 172.367 68.547Z" fill="white"/>
<path d="M158.248 76.3781C158.014 76.0316 157.794 75.6786 157.586 75.3193C157.379 74.96 157.185 74.5956 157.005 74.2261C156.825 73.8566 156.659 73.4825 156.506 73.1037C156.353 72.7249 156.215 72.3428 156.091 71.9574C156.028 71.753 155.969 71.5479 155.916 71.342C155.863 71.1362 155.814 70.93 155.771 70.7234C155.727 70.5169 155.689 70.31 155.655 70.1025C155.622 69.8951 155.593 69.6878 155.57 69.4807C155.558 69.3842 155.548 69.2875 155.538 69.1906C155.529 69.0937 155.521 68.9969 155.513 68.9002C155.506 68.8034 155.5 68.7066 155.495 68.61C155.49 68.5134 155.486 68.4169 155.483 68.3206C155.529 68.1734 155.577 68.0267 155.625 67.8807C155.673 67.7346 155.722 67.5891 155.772 67.4443C155.822 67.2994 155.872 67.1553 155.924 67.0117C155.975 66.8682 156.028 66.7251 156.081 66.5826C156.07 66.702 156.06 66.8217 156.051 66.9416C156.043 67.0616 156.037 67.182 156.032 67.3027C156.027 67.4234 156.024 67.5444 156.022 67.6657C156.021 67.787 156.021 67.9085 156.023 68.0303C156.023 68.0966 156.023 68.163 156.025 68.2293C156.026 68.2957 156.028 68.362 156.03 68.4284C156.032 68.4947 156.035 68.5611 156.039 68.6275C156.042 68.6939 156.046 68.7602 156.051 68.8266C156.102 69.5712 156.22 70.3099 156.402 71.034C156.587 71.7668 156.828 72.4844 157.123 73.1807C157.424 73.8903 157.77 74.5797 158.161 75.2446C158.558 75.9212 158.993 76.5755 159.462 77.2047C159.968 77.8839 160.502 78.5452 161.065 79.1886C161.628 79.8321 162.213 80.4579 162.818 81.0661C163.425 81.6737 164.049 82.2625 164.691 82.8326C165.333 83.4026 165.986 83.953 166.649 84.4836C167.328 85.0284 168.021 85.5525 168.728 86.0559C169.435 86.5593 170.153 87.0407 170.883 87.4999C171.613 87.9591 172.353 88.3958 173.105 88.8102C173.856 89.2246 174.616 89.6153 175.385 89.9823C175.42 89.9995 175.452 90.0229 175.479 90.0514C175.505 90.0793 175.526 90.1114 175.542 90.1465C175.557 90.1811 175.566 90.218 175.568 90.2557C175.571 90.2936 175.566 90.3317 175.553 90.3677C175.549 90.3833 175.544 90.3984 175.537 90.4129C175.53 90.427 175.522 90.4403 175.512 90.4527C175.503 90.465 175.492 90.4763 175.48 90.4865C175.469 90.4964 175.456 90.5051 175.442 90.5124C175.428 90.519 175.413 90.5237 175.397 90.5264C175.381 90.5291 175.365 90.53 175.35 90.5289C175.333 90.5278 175.317 90.5249 175.302 90.5201C175.286 90.5153 175.27 90.5088 175.256 90.5005C175.161 90.4553 175.066 90.4098 174.971 90.3642C174.876 90.3186 174.782 90.2727 174.687 90.2265C174.593 90.1803 174.498 90.1336 174.404 90.0866C174.31 90.0395 174.215 89.9918 174.121 89.9434C173.338 89.5435 172.565 89.1197 171.803 88.672C171.04 88.2242 170.29 87.7531 169.55 87.2587C168.811 86.7643 168.085 86.2477 167.373 85.709C166.66 85.1702 165.963 84.61 165.28 84.0284C164.621 83.4685 163.97 82.8896 163.335 82.2911C162.7 81.6925 162.08 81.0748 161.484 80.4373C160.888 79.7999 160.316 79.143 159.773 78.4663C159.231 77.7896 158.72 77.0939 158.248 76.3781Z" fill="white"/>
<path d="M173.003 20.7567L172.442 20.8291L176.204 6.79849C176.482 5.86161 176.527 4.87202 176.336 3.91406C176.17 3.13133 175.761 2.42027 175.166 1.88177C174.542 1.34336 173.779 0.991061 172.962 0.865537C171.968 0.712553 170.954 0.757705 169.977 0.998367L144.41 6.78432C143.518 6.99946 142.664 7.34864 141.877 7.81978C141.022 8.32518 140.226 8.92448 139.506 9.60641C138.765 10.3018 138.099 11.0729 137.521 11.9071C136.956 12.7144 136.495 13.5893 136.149 14.5109L109.399 87.6264C108.954 88.8286 108.665 90.0822 108.539 91.3569C108.422 92.4886 108.477 93.6314 108.703 94.7467C108.891 95.7157 109.285 96.6339 109.857 97.4404C110.383 98.1737 111.122 98.7282 111.976 99.0285L138.989 108.27C140.189 108.676 141.478 108.752 142.718 108.49C144.043 108.203 145.29 107.633 146.371 106.818C147.585 105.912 148.629 104.8 149.455 103.534C150.37 102.143 151.054 100.614 151.48 99.0072L169.59 31.4634L170.159 31.4182L173.003 20.7567Z" fill="#2F2E41"/>
<path d="M171.049 19.9799L170.488 20.0523L174.25 6.0217C174.527 5.08482 174.572 4.09522 174.382 3.13727C174.216 2.35454 173.807 1.64347 173.212 1.10498C172.588 0.566562 171.824 0.214266 171.008 0.0887427C170.014 -0.0642414 168.999 -0.019089 168.023 0.221573L142.456 6.00752C141.563 6.22267 140.709 6.57184 139.923 7.04299C139.068 7.54838 138.272 8.14768 137.552 8.82961C136.81 9.52499 136.145 10.2961 135.566 11.1303C135.001 11.9377 134.541 12.8125 134.195 13.7341L107.444 86.8496C107 88.0518 106.711 89.3054 106.585 90.5801C106.468 91.7118 106.523 92.8546 106.749 93.9699C106.937 94.9389 107.331 95.8571 107.903 96.6636C108.428 97.3969 109.168 97.9514 110.022 98.2517L137.035 107.493C138.235 107.899 139.523 107.975 140.763 107.713C142.089 107.427 143.336 106.856 144.417 106.042C145.631 105.135 146.675 104.023 147.501 102.757C148.416 101.366 149.1 99.8375 149.526 98.2304L167.636 30.6866L168.204 30.6414L171.049 19.9799Z" fill="#3F3D56"/>
<path d="M167.797 2.05228L164.039 2.87044C164.08 3.19356 164.047 3.52171 163.944 3.83075C163.827 4.19222 163.657 4.53468 163.44 4.84718C162.951 5.55664 162.299 6.13982 161.537 6.54817C161.446 6.59633 161.355 6.6408 161.265 6.68158C161.174 6.72236 161.084 6.75939 160.993 6.79266C160.903 6.82594 160.814 6.85532 160.725 6.88083C160.636 6.90633 160.548 6.92782 160.461 6.9453L145.767 9.90197C145.494 9.96492 145.21 9.96172 144.939 9.89265C144.721 9.83444 144.528 9.70556 144.392 9.52639C144.254 9.33402 144.177 9.10579 144.169 8.87C144.157 8.56923 144.205 8.26916 144.31 7.98659C144.336 7.91034 144.365 7.83356 144.399 7.75627C144.432 7.67898 144.468 7.60169 144.508 7.5244C144.547 7.44672 144.59 7.36943 144.636 7.29253C144.682 7.21563 144.731 7.13879 144.782 7.06202L142 7.66772C141.33 7.82388 140.688 8.08197 140.097 8.43286C139.452 8.81076 138.851 9.2603 138.308 9.77283C137.748 10.2965 137.245 10.8779 136.809 11.5074C136.384 12.1157 136.038 12.7752 135.78 13.4702L109.08 87.2211C108.748 88.1273 108.534 89.0723 108.445 90.0327C108.363 90.8805 108.411 91.7357 108.589 92.5689C108.737 93.289 109.04 93.969 109.476 94.5626C109.876 95.101 110.433 95.5035 111.072 95.7151L138.284 104.5C139.182 104.786 140.14 104.829 141.06 104.624C142.04 104.401 142.96 103.972 143.759 103.366C144.652 102.693 145.421 101.872 146.032 100.938C146.708 99.9126 147.215 98.7865 147.534 97.6023L172.397 6.42971C172.606 5.73374 172.645 4.99837 172.51 4.28459C172.393 3.69965 172.096 3.16556 171.659 2.75683C171.201 2.3482 170.635 2.07737 170.028 1.97596C169.287 1.85223 168.528 1.87819 167.797 2.05228Z" fill="white"/>
<path d="M153.203 36.9816H99.0717V18.7531H153.203V36.9816Z" fill="white"/>
<path d="M137.378 43.4152H84.3248V68.9709H137.378V43.4152Z" fill="white"/>
<path d="M92.9435 55.6871C95.0629 55.6871 96.781 53.9798 96.781 51.8737C96.781 49.7676 95.0629 48.0602 92.9435 48.0602C90.8241 48.0602 89.106 49.7676 89.106 51.8737C89.106 53.9798 90.8241 55.6871 92.9435 55.6871Z" fill="#559998"/>
<path d="M101.806 49.3314C101.637 49.3314 101.474 49.3984 101.354 49.5175C101.234 49.6367 101.167 49.7984 101.167 49.967C101.167 50.1355 101.234 50.2972 101.354 50.4164C101.474 50.5356 101.637 50.6025 101.806 50.6025H131.958C132.127 50.6021 132.29 50.535 132.409 50.4158C132.529 50.2967 132.596 50.1353 132.596 49.967C132.596 49.7987 132.529 49.6372 132.409 49.5181C132.29 49.399 132.127 49.3318 131.958 49.3314H101.806Z" fill="#E6E6E6"/>
<path d="M101.806 53.1448C101.722 53.1445 101.639 53.1607 101.561 53.1924C101.483 53.2242 101.413 53.2708 101.353 53.3297C101.294 53.3886 101.246 53.4586 101.214 53.5357C101.181 53.6128 101.165 53.6955 101.165 53.779C101.164 53.8626 101.181 53.9453 101.213 54.0225C101.245 54.0998 101.292 54.17 101.351 54.2291C101.411 54.2883 101.481 54.3352 101.559 54.3673C101.636 54.3993 101.72 54.4159 101.804 54.4159H114.781C114.865 54.4159 114.948 54.3995 115.025 54.3676C115.103 54.3356 115.174 54.2888 115.233 54.2298C115.292 54.1708 115.339 54.1007 115.372 54.0236C115.404 53.9465 115.42 53.8638 115.42 53.7804C115.42 53.6969 115.404 53.6143 115.372 53.5372C115.339 53.46 115.292 53.39 115.233 53.331C115.174 53.2719 115.103 53.2251 115.025 53.1932C114.948 53.1612 114.865 53.1448 114.781 53.1448H101.806Z" fill="#E6E6E6"/>
<path d="M90 59.2414C89.5135 59.2414 89.1176 59.5265 89.1176 59.877C89.1176 60.2274 89.5135 60.5125 90 60.5125H131.6C132.087 60.5125 132.483 60.2274 132.483 59.877C132.483 59.5265 132.087 59.2414 131.6 59.2414H90Z" fill="#E6E6E6"/>
<path d="M90 63.0548C89.5135 63.0548 89.1176 63.34 89.1176 63.6904C89.1176 64.0408 89.5135 64.3259 90 64.3259H122.024C122.511 64.3259 122.907 64.0408 122.907 63.6904C122.907 63.34 122.511 63.0548 122.024 63.0548H90Z" fill="#E6E6E6"/>
<path d="M137.917 69.5071H83.7853V42.8791H137.917V69.5071ZM84.8643 68.4348H136.838V43.9514H84.8643V68.4348Z" fill="#E6E6E6"/>
<path d="M108.23 31.5611C110.349 31.5611 112.067 29.8537 112.067 27.7476C112.067 25.6415 110.349 23.9342 108.23 23.9342C106.11 23.9342 104.392 25.6415 104.392 27.7476C104.392 29.8537 106.11 31.5611 108.23 31.5611Z" fill="#559998"/>
<path d="M117.093 25.2053C116.923 25.2053 116.76 25.2723 116.64 25.3915C116.521 25.5107 116.453 25.6724 116.453 25.8409C116.453 26.0095 116.521 26.1711 116.64 26.2903C116.76 26.4095 116.923 26.4765 117.093 26.4765H147.245C147.414 26.4761 147.576 26.4089 147.696 26.2898C147.815 26.1706 147.883 26.0092 147.883 25.8409C147.883 25.6726 147.815 25.5112 147.696 25.3921C147.576 25.2729 147.414 25.2058 147.245 25.2053H117.093Z" fill="#E6E6E6"/>
<path d="M117.093 29.0188C117.009 29.0185 116.925 29.0347 116.848 29.0664C116.77 29.0981 116.699 29.1448 116.64 29.2037C116.58 29.2626 116.533 29.3326 116.5 29.4097C116.468 29.4868 116.451 29.5695 116.451 29.653C116.451 29.7365 116.467 29.8193 116.499 29.8965C116.531 29.9737 116.578 30.0439 116.638 30.1031C116.697 30.1622 116.767 30.2092 116.845 30.2412C116.923 30.2733 117.006 30.2898 117.09 30.2899H140.815C140.985 30.2899 141.148 30.2229 141.268 30.1038C141.388 29.9846 141.455 29.8229 141.455 29.6543C141.455 29.4858 141.388 29.3241 141.268 29.2049C141.148 29.0857 140.985 29.0188 140.815 29.0188H117.093Z" fill="#E6E6E6"/>
<path d="M153.203 36.9816H99.0717V18.7531H153.203V36.9816ZM100.151 35.9093H152.124V19.8253H100.151V35.9093Z" fill="#E6E6E6"/>
<path d="M46.8404 106.418H49.5691L50.8673 95.9591L46.8398 95.9593L46.8404 106.418Z" fill="#FFB6B6"/>
<path d="M54.8318 108.936L46.2557 108.936L46.2556 105.644L51.9224 105.643C52.694 105.643 53.434 105.948 53.9796 106.49C54.5253 107.032 54.8318 107.768 54.8318 108.534L54.8318 108.936Z" fill="#2F2E41"/>
<path d="M19.5542 102.904L21.9454 104.211L28.1541 95.6668L24.6249 93.7388L19.5542 102.904Z" fill="#FFB6B6"/>
<path d="M25.3363 108.936L17.8211 104.831L19.4174 101.945L24.3833 104.658C25.0594 105.028 25.5602 105.649 25.7754 106.385C25.9907 107.121 25.9028 107.913 25.5311 108.584L25.3363 108.936Z" fill="#2F2E41"/>
<path d="M46.7129 100.613C46.4698 100.613 46.235 100.525 46.0524 100.365C45.8698 100.206 45.7519 99.9854 45.7206 99.7458L42.308 73.6135C42.2929 73.498 42.2414 73.3901 42.161 73.3053C42.0805 73.2205 41.9751 73.1631 41.8599 73.1414C41.7446 73.1197 41.6254 73.1347 41.5193 73.1843C41.4132 73.2339 41.3255 73.3156 41.2689 73.4176L27.0464 99.0594C26.929 99.2687 26.74 99.4293 26.5136 99.5119C26.2872 99.5944 26.0385 99.5935 25.8127 99.5093L22.7126 98.3356C22.588 98.2884 22.474 98.2169 22.3775 98.1253C22.281 98.0337 22.2039 97.9239 22.1507 97.8023C22.0975 97.6807 22.0693 97.5498 22.0677 97.4172C22.0661 97.2846 22.0912 97.1531 22.1415 97.0303L31.9938 72.9796C32.0187 72.9185 32.0356 72.8545 32.0441 72.7891C33.3785 62.5255 36.7738 57.3062 37.7825 55.951C37.8562 55.8514 37.9047 55.7356 37.9239 55.6135C37.9431 55.4913 37.9325 55.3664 37.8929 55.2492L37.7542 54.8358C37.6988 54.6717 37.6875 54.4961 37.7213 54.3263C37.7551 54.1565 37.8329 53.9985 37.947 53.8677C41.582 49.7534 47.9176 51.9984 47.9812 52.0216L48.0129 52.0332L48.0328 52.0602C55.137 61.7419 52.5103 93.1877 51.9117 99.3931C51.8893 99.6263 51.7847 99.8441 51.6163 100.008C51.4479 100.172 51.2266 100.271 50.9915 100.289L46.7907 100.61C46.7646 100.612 46.7387 100.613 46.7129 100.613Z" fill="#2F2E41"/>
<path d="M44.7867 28.0011C48.1407 28.0011 50.8595 25.2992 50.8595 21.9664C50.8595 18.6335 48.1407 15.9317 44.7867 15.9317C41.4328 15.9317 38.7139 18.6335 38.7139 21.9664C38.7139 25.2992 41.4328 28.0011 44.7867 28.0011Z" fill="#FFB8B8"/>
<path d="M35.3981 60.3664L53.2677 61.9826C51.7097 56.5994 50.2823 51.235 51.4458 45.8901C52.9233 41.1183 53.0606 38.4749 49.1631 36.2276L46.5316 30.3941L41.7689 30.222L39.4466 29.5894C37.5704 32.5872 36.8029 36.1404 37.2759 39.6392C38.2855 47.2476 38.0128 54.3077 35.3981 60.3664Z" fill="#559998"/>
<path d="M38.1105 33.4373L36.3131 25.2393C35.938 23.2987 36.0321 21.2973 36.5876 19.4C36.6481 19.2055 36.721 19.0151 36.8059 18.8299C37.3034 17.7524 38.0857 16.8291 39.0694 16.1583C40.0532 15.4876 41.2015 15.0945 42.3922 15.0208C46.4772 14.7404 47.0769 15.1684 47.2246 15.3794C49.5329 15.2868 51.3228 16.173 52.1395 17.813C52.2195 17.9758 52.2626 18.154 52.2657 18.3351C52.2689 18.5162 52.2321 18.6959 52.1579 18.8613C52.0836 19.0268 51.9738 19.174 51.8361 19.2927C51.6984 19.4114 51.5362 19.4987 51.3609 19.5484C50.22 19.8752 48.6165 20.2383 47.414 20.1315C45.0035 23.0047 45.9889 28.2688 48.4345 31.4053L48.5306 31.5285L46.1076 32.022L43.2918 28.1254C43.2361 28.0483 43.1555 27.9926 43.0633 27.9675C42.9712 27.9424 42.8732 27.9495 42.7857 27.9875C42.6982 28.0256 42.6265 28.0924 42.5826 28.1767C42.5387 28.2611 42.5253 28.3578 42.5446 28.4507L43.3995 32.5777L38.1105 33.4373Z" fill="#2F2E41"/>
<path d="M169.449 109H0V108.577H169.526L169.449 109Z" fill="#CACACA"/>
<path d="M72.8215 55.5122L28.6241 86.5706L18.0328 71.6874L62.2302 40.629L72.8215 55.5122Z" fill="white"/>
<path d="M32.9521 76.8903C34.6825 75.6743 35.0933 73.2945 33.8696 71.5749C32.6459 69.8553 30.2511 69.4471 28.5207 70.6631C26.7902 71.8792 26.3794 74.2589 27.6031 75.9785C28.8268 77.6981 31.2216 78.1063 32.9521 76.8903Z" fill="#559998"/>
<path d="M36.4955 66.6159C36.357 66.7133 36.2631 66.8613 36.2344 67.0274C36.2058 67.1936 36.2447 67.3642 36.3426 67.5018C36.4405 67.6395 36.5895 67.7328 36.7567 67.7613C36.9239 67.7898 37.0956 67.7511 37.2341 67.6538L61.8524 50.354C61.9904 50.2565 62.0839 50.1086 62.1123 49.9427C62.1407 49.7768 62.1018 49.6065 62.004 49.4691C61.9062 49.3316 61.7576 49.2384 61.5907 49.2097C61.4238 49.1811 61.2523 49.2193 61.1138 49.3162L36.4955 66.6159Z" fill="#E6E6E6"/>
<path d="M38.7112 69.7295C38.5727 69.8266 38.4787 69.9744 38.4498 70.1404C38.4208 70.3063 38.4594 70.4769 38.557 70.6147C38.6546 70.7524 38.8032 70.846 38.9702 70.8749C39.1372 70.9039 39.3089 70.8657 39.4476 70.7689L39.4498 70.7673L58.8189 57.1563C58.9574 57.059 59.0513 56.911 59.08 56.7448C59.1087 56.5787 59.0698 56.408 58.9718 56.2704C58.9233 56.2023 58.8618 56.1443 58.7908 56.0997C58.7197 56.0552 58.6405 56.025 58.5578 56.0109C58.3906 55.9824 58.2188 56.0211 58.0803 56.1184L38.7112 69.7295Z" fill="#E6E6E6"/>
<path d="M72.8215 55.5122L28.6241 86.5706L18.0328 71.6874L62.2302 40.629L72.8215 55.5122ZM28.8821 85.076L71.3174 55.2559L61.9722 42.1236L19.5369 71.9438L28.8821 85.076Z" fill="#E6E6E6"/>
<path d="M173.742 49.998C173.898 49.992 174.055 50.0185 174.201 50.0757C174.339 50.1308 174.465 50.2138 174.569 50.3194C174.674 50.4257 174.756 50.5523 174.81 50.6913C174.867 50.8387 174.893 50.9961 174.887 51.1539C174.88 51.3157 174.842 51.4748 174.775 51.6223C174.709 51.767 174.618 51.8985 174.505 52.0107C174.392 52.1223 174.261 52.2126 174.116 52.2771C173.969 52.3427 173.81 52.3788 173.649 52.3832C173.492 52.3879 173.336 52.36 173.19 52.3014C173.053 52.2454 172.928 52.1618 172.824 52.0557C172.72 51.9492 172.639 51.8225 172.586 51.6837C172.53 51.5368 172.504 51.3801 172.511 51.2232C172.518 51.0622 172.556 50.9039 172.622 50.7571C172.688 50.6139 172.779 50.4835 172.891 50.3722C173.002 50.2609 173.133 50.1705 173.277 50.1056C173.423 50.0398 173.581 50.0032 173.742 49.998Z" fill="#F2F2F2"/>
<path d="M49.4827 65.1379L46.6086 49.5248L46.811 39.8693L40.3334 39.6681L41.5479 50.5306L45.7363 65.5933C45.3886 66.0132 45.1756 66.527 45.1247 67.0684C45.0738 67.6097 45.1873 68.1539 45.4506 68.6305C45.7139 69.1071 46.1149 69.4944 46.6019 69.7424C47.0889 69.9904 47.6394 70.0876 48.1826 70.0216C48.7257 69.9556 49.2364 69.7293 49.6489 69.3721C50.0614 69.0148 50.3566 68.5429 50.4966 68.0172C50.6365 67.4916 50.6147 66.9363 50.434 66.4231C50.2533 65.9098 49.9219 65.4622 49.4827 65.1379Z" fill="#FFB8B8"/>
<path d="M39.9285 40.6739C42.2754 39.7856 44.869 39.7856 47.2159 40.6739L46.811 32.6277C46.811 32.205 46.7273 31.7865 46.5645 31.396C46.4017 31.0055 46.1632 30.6507 45.8624 30.3518C45.5617 30.053 45.2046 29.8159 44.8117 29.6542C44.4187 29.4924 43.9975 29.4092 43.5722 29.4092C43.1469 29.4092 42.7257 29.4924 42.3328 29.6542C41.9398 29.8159 41.5828 30.053 41.282 30.3518C40.9813 30.6507 40.7427 31.0055 40.5799 31.396C40.4172 31.7865 40.3334 32.205 40.3334 32.6277L39.9285 40.6739Z" fill="#559998"/>
</g>
<defs>
<clipPath id="clip0_48_3903">
<rect width="177" height="109" fill="white"/>
</clipPath>
</defs>
</svg>
