<svg width="138" height="109" viewBox="0 0 138 109" fill="none" xmlns="http://www.w3.org/2000/svg">
<g clip-path="url(#clip0_48_3943)">
<path d="M110.8 25.8666H110.2V9.48263C110.2 8.23735 109.954 7.00427 109.476 5.85378C108.998 4.7033 108.298 3.65794 107.415 2.7774C106.531 1.89686 105.483 1.19837 104.329 0.721823C103.175 0.245276 101.939 5.89252e-07 100.69 0H65.8768C63.3545 -5.55333e-06 60.9355 0.999047 59.152 2.77738C57.3684 4.55571 56.3665 6.96765 56.3665 9.48259V99.3665C56.3665 101.881 57.3684 104.293 59.1519 106.072C60.9355 107.85 63.3544 108.849 65.8767 108.849H100.69C103.212 108.849 105.631 107.85 107.414 106.072C109.198 104.293 110.2 101.882 110.2 99.3666V37.529H110.8L110.8 25.8666Z" fill="#E6E6E6"/>
<path d="M108.176 9.54879V99.3004C108.176 101.179 107.428 102.98 106.096 104.308C104.764 105.636 102.957 106.382 101.073 106.382H66.0934C64.2097 106.382 62.4031 105.636 61.0712 104.308C59.7392 102.98 58.9909 101.179 58.9908 99.3004V9.54879C58.9909 7.67058 59.7392 5.86931 61.0712 4.54121C62.4031 3.21312 64.2097 2.46698 66.0934 2.46695H70.3368C70.1283 2.97785 70.0489 3.53202 70.1056 4.08071C70.1623 4.62939 70.3534 5.15578 70.662 5.61357C70.9706 6.07136 71.3873 6.44652 71.8754 6.70605C72.3635 6.96558 72.9082 7.10152 73.4614 7.10193H93.4054C93.9585 7.10152 94.5032 6.96557 94.9913 6.70604C95.4794 6.44651 95.8961 6.07135 96.2047 5.61356C96.5133 5.15578 96.7044 4.62939 96.7611 4.08071C96.8178 3.53202 96.7384 2.97785 96.5298 2.46695H101.073C102.957 2.46698 104.764 3.21312 106.096 4.54121C107.428 5.86931 108.176 7.67058 108.176 9.54879Z" fill="white"/>
<path d="M67.9579 10.7912C66.6848 10.7912 65.4639 11.2954 64.5637 12.193C63.6636 13.0905 63.1578 14.3079 63.1578 15.5772C63.1578 16.8465 63.6635 18.0639 64.5637 18.9615C65.4639 19.859 66.6848 20.3633 67.9578 20.3633C69.2309 20.3633 70.4518 19.859 71.352 18.9615C72.2521 18.0639 72.7579 16.8466 72.7579 15.5772C72.7579 14.3079 72.2521 13.0905 71.352 12.193C70.4518 11.2954 69.2309 10.7912 67.9579 10.7912Z" fill="#E6E6E6"/>
<path d="M102.809 19.6155H77.6087C77.2904 19.6155 76.9852 19.4894 76.7602 19.265C76.5351 19.0406 76.4087 18.7363 76.4087 18.419C76.4087 18.1016 76.5351 17.7973 76.7602 17.5729C76.9852 17.3485 77.2904 17.2225 77.6087 17.2225H102.809C103.127 17.2225 103.432 17.3485 103.657 17.5729C103.882 17.7973 104.009 18.1016 104.009 18.419C104.009 18.7363 103.882 19.0406 103.657 19.265C103.432 19.4894 103.127 19.6155 102.809 19.6155Z" fill="#E6E6E6"/>
<path d="M85.5587 14.5303H77.6087C77.2904 14.5303 76.9852 14.4042 76.7602 14.1799C76.5351 13.9555 76.4087 13.6511 76.4087 13.3338C76.4087 13.0165 76.5351 12.7121 76.7602 12.4877C76.9852 12.2634 77.2904 12.1373 77.6087 12.1373H85.5587C85.877 12.1373 86.1822 12.2634 86.4072 12.4877C86.6323 12.7121 86.7587 13.0165 86.7587 13.3338C86.7587 13.6511 86.6323 13.9555 86.4072 14.1799C86.1822 14.4042 85.877 14.5303 85.5587 14.5303Z" fill="#E6E6E6"/>
<path d="M67.9579 30.8327C66.6848 30.8327 65.4639 31.337 64.5637 32.2345C63.6636 33.1321 63.1578 34.3494 63.1578 35.6187C63.1578 36.8881 63.6635 38.1054 64.5637 39.003C65.4639 39.9005 66.6848 40.4048 67.9578 40.4048C69.2309 40.4048 70.4518 39.9005 71.352 39.003C72.2521 38.1054 72.7579 36.8881 72.7579 35.6188C72.7579 34.3494 72.2521 33.1321 71.352 32.2345C70.4518 31.337 69.2309 30.8327 67.9579 30.8327Z" fill="#E6E6E6"/>
<path d="M102.809 39.657H77.6087C77.2904 39.657 76.9852 39.5309 76.7602 39.3065C76.5351 39.0822 76.4087 38.7778 76.4087 38.4605C76.4087 38.1432 76.5351 37.8388 76.7602 37.6144C76.9852 37.39 77.2904 37.264 77.6087 37.264H102.809C103.127 37.264 103.432 37.39 103.657 37.6144C103.882 37.8388 104.009 38.1432 104.009 38.4605C104.009 38.7778 103.882 39.0822 103.657 39.3065C103.432 39.5309 103.127 39.657 102.809 39.657Z" fill="#E6E6E6"/>
<path d="M85.5587 34.5718H77.6087C77.2904 34.5718 76.9852 34.4458 76.7602 34.2214C76.5351 33.997 76.4087 33.6927 76.4087 33.3753C76.4087 33.058 76.5351 32.7537 76.7602 32.5293C76.9852 32.3049 77.2904 32.1788 77.6087 32.1788H85.5587C85.877 32.1788 86.1822 32.3049 86.4072 32.5293C86.6323 32.7537 86.7587 33.058 86.7587 33.3753C86.7587 33.6927 86.6323 33.997 86.4072 34.2214C86.1822 34.4458 85.877 34.5718 85.5587 34.5718Z" fill="#E6E6E6"/>
<path d="M67.9579 70.9158C66.6848 70.9158 65.4639 71.42 64.5637 72.3176C63.6636 73.2151 63.1578 74.4325 63.1578 75.7018C63.1578 76.9711 63.6635 78.1885 64.5637 79.086C65.4639 79.9836 66.6848 80.4878 67.9578 80.4878C69.2309 80.4878 70.4518 79.9836 71.352 79.0861C72.2521 78.1885 72.7579 76.9711 72.7579 75.7018C72.7579 74.4325 72.2521 73.2151 71.352 72.3176C70.4518 71.42 69.2309 70.9158 67.9579 70.9158Z" fill="#E6E6E6"/>
<path d="M102.809 79.7401H77.6087C77.2904 79.7401 76.9852 79.614 76.7602 79.3896C76.5351 79.1652 76.4087 78.8609 76.4087 78.5436C76.4087 78.2262 76.5351 77.9219 76.7602 77.6975C76.9852 77.4731 77.2904 77.347 77.6087 77.347H102.809C103.127 77.347 103.432 77.4731 103.657 77.6975C103.882 77.9219 104.009 78.2262 104.009 78.5436C104.009 78.8609 103.882 79.1652 103.657 79.3896C103.432 79.614 103.127 79.7401 102.809 79.7401Z" fill="#E6E6E6"/>
<path d="M85.5587 74.6549H77.6087C77.2904 74.6549 76.9852 74.5288 76.7602 74.3044C76.5351 74.0801 76.4087 73.7757 76.4087 73.4584C76.4087 73.141 76.5351 72.8367 76.7602 72.6123C76.9852 72.3879 77.2904 72.2619 77.6087 72.2619H85.5587C85.877 72.2619 86.1822 72.3879 86.4072 72.6123C86.6323 72.8367 86.7587 73.141 86.7587 73.4584C86.7587 73.7757 86.6323 74.0801 86.4072 74.3044C86.1822 74.5288 85.877 74.6549 85.5587 74.6549Z" fill="#E6E6E6"/>
<path d="M67.9579 90.9573C66.6848 90.9573 65.4639 91.4615 64.5637 92.3591C63.6636 93.2566 63.1578 94.474 63.1578 95.7433C63.1578 97.0127 63.6635 98.23 64.5637 99.1276C65.4639 100.025 66.6848 100.529 67.9578 100.529C69.2309 100.529 70.4518 100.025 71.352 99.1276C72.2521 98.23 72.7579 97.0127 72.7579 95.7433C72.7579 94.474 72.2521 93.2567 71.352 92.3591C70.4518 91.4615 69.2309 90.9573 67.9579 90.9573Z" fill="#E6E6E6"/>
<path d="M102.809 99.7816H77.6087C77.2904 99.7816 76.9852 99.6555 76.7602 99.4311C76.5351 99.2068 76.4087 98.9024 76.4087 98.5851C76.4087 98.2678 76.5351 97.9634 76.7602 97.739C76.9852 97.5146 77.2904 97.3886 77.6087 97.3886H102.809C103.127 97.3886 103.432 97.5146 103.657 97.739C103.882 97.9634 104.009 98.2678 104.009 98.5851C104.009 98.9024 103.882 99.2068 103.657 99.4311C103.432 99.6555 103.127 99.7816 102.809 99.7816Z" fill="#E6E6E6"/>
<path d="M85.5587 94.6964H77.6087C77.2904 94.6964 76.9852 94.5704 76.7602 94.346C76.5351 94.1216 76.4087 93.8172 76.4087 93.4999C76.4087 93.1826 76.5351 92.8782 76.7602 92.6539C76.9852 92.4295 77.2904 92.3034 77.6087 92.3034H85.5587C85.877 92.3034 86.1822 92.4295 86.4072 92.6539C86.6323 92.8782 86.7587 93.1826 86.7587 93.4999C86.7587 93.8172 86.6323 94.1216 86.4072 94.346C86.1822 94.5704 85.877 94.6964 85.5587 94.6964Z" fill="#E6E6E6"/>
<path d="M112.533 67.1767H54.6333C53.9771 67.176 53.348 66.9157 52.8841 66.4531C52.4201 65.9905 52.1591 65.3632 52.1583 64.7089V46.163C52.1591 45.5087 52.4201 44.8815 52.8841 44.4188C53.3481 43.9562 53.9771 43.696 54.6333 43.6952H112.533C113.19 43.696 113.819 43.9562 114.283 44.4188C114.747 44.8815 115.008 45.5087 115.008 46.163V64.7089C115.008 65.3632 114.747 65.9905 114.283 66.4531C113.819 66.9157 113.19 67.176 112.533 67.1767Z" fill="white"/>
<path d="M61.7438 62.2749C60.3872 62.2749 59.0611 61.8738 57.9332 61.1224C56.8053 60.3709 55.9261 59.3028 55.407 58.0531C54.8879 56.8035 54.752 55.4284 55.0167 54.1018C55.2813 52.7751 55.9346 51.5565 56.8938 50.6001C57.8531 49.6437 59.0752 48.9923 60.4057 48.7284C61.7362 48.4645 63.1153 48.6 64.3686 49.1176C65.6219 49.6352 66.6931 50.5118 67.4468 51.6365C68.2004 52.7611 68.6027 54.0834 68.6027 55.436C68.6007 57.2492 67.8774 58.9875 66.5915 60.2696C65.3057 61.5517 63.5623 62.2729 61.7438 62.2749ZM61.7438 48.8961C60.4466 48.8961 59.1785 49.2797 58.0999 49.9983C57.0213 50.7169 56.1806 51.7383 55.6842 52.9333C55.1877 54.1283 55.0578 55.4432 55.3109 56.7118C55.564 57.9804 56.1887 59.1457 57.106 60.0603C58.0232 60.9749 59.1919 61.5978 60.4642 61.8501C61.7365 62.1025 63.0553 61.973 64.2538 61.478C65.4523 60.983 66.4766 60.1448 67.1973 59.0693C67.918 57.9938 68.3027 56.7294 68.3027 55.436C68.3008 53.7021 67.6091 52.0398 66.3795 50.8138C65.1499 49.5878 63.4827 48.8981 61.7438 48.8961Z" fill="#3F3D56"/>
<path d="M110.455 61.0802H75.2327C75.0123 61.0804 74.794 61.0373 74.5903 60.9534C74.3866 60.8694 74.2016 60.7463 74.0456 60.5909C73.8897 60.4356 73.766 60.2512 73.6817 60.0482C73.5973 59.8452 73.5538 59.6276 73.5538 59.4079C73.5538 59.1881 73.5973 58.9705 73.6817 58.7675C73.766 58.5645 73.8897 58.3801 74.0456 58.2248C74.2016 58.0695 74.3866 57.9463 74.5903 57.8624C74.794 57.7784 75.0123 57.7353 75.2327 57.7355H110.455C110.675 57.7353 110.893 57.7784 111.097 57.8624C111.301 57.9463 111.486 58.0695 111.642 58.2248C111.797 58.3801 111.921 58.5645 112.006 58.7675C112.09 58.9705 112.133 59.1881 112.133 59.4079C112.133 59.6276 112.09 59.8452 112.006 60.0482C111.921 60.2512 111.797 60.4356 111.642 60.5909C111.486 60.7463 111.301 60.8694 111.097 60.9534C110.893 61.0373 110.675 61.0804 110.455 61.0802Z" fill="#559998"/>
<path d="M86.3443 53.9727H75.2327C75.0123 53.9729 74.794 53.9298 74.5903 53.8459C74.3866 53.7619 74.2016 53.6388 74.0456 53.4834C73.8897 53.3281 73.766 53.1437 73.6817 52.9407C73.5973 52.7377 73.5538 52.5201 73.5538 52.3003C73.5538 52.0806 73.5973 51.863 73.6817 51.66C73.766 51.457 73.8897 51.2726 74.0456 51.1173C74.2016 50.9619 74.3866 50.8388 74.5903 50.7548C74.794 50.6709 75.0123 50.6278 75.2327 50.628H86.3443C86.5647 50.6278 86.783 50.6709 86.9867 50.7548C87.1903 50.8388 87.3754 50.9619 87.5313 51.1173C87.6872 51.2726 87.8109 51.457 87.8953 51.66C87.9797 51.863 88.0231 52.0806 88.0231 52.3003C88.0231 52.5201 87.9797 52.7377 87.8953 52.9407C87.8109 53.1437 87.6872 53.3281 87.5313 53.4834C87.3754 53.6388 87.1903 53.7619 86.9867 53.8459C86.783 53.9298 86.5647 53.9729 86.3443 53.9727Z" fill="#559998"/>
<path d="M112.533 67.1767H54.6333C53.9771 67.176 53.348 66.9157 52.8841 66.4531C52.4201 65.9905 52.1591 65.3632 52.1583 64.7089V46.163C52.1591 45.5087 52.4201 44.8815 52.8841 44.4188C53.3481 43.9562 53.9771 43.696 54.6333 43.6952H112.533C113.19 43.696 113.819 43.9562 114.283 44.4188C114.747 44.8815 115.008 45.5087 115.008 46.163V64.7089C115.008 65.3632 114.747 65.9905 114.283 66.4531C113.819 66.9157 113.19 67.176 112.533 67.1767ZM54.6333 43.8448C54.0169 43.8455 53.4259 44.0899 52.9901 44.5245C52.5542 44.9592 52.309 45.5484 52.3083 46.163V64.7089C52.309 65.3235 52.5542 65.9128 52.9901 66.3474C53.4259 66.782 54.0169 67.0265 54.6333 67.0272H112.533C113.15 67.0265 113.741 66.782 114.177 66.3474C114.612 65.9128 114.858 65.3235 114.858 64.7089V46.163C114.858 45.5484 114.612 44.9592 114.177 44.5245C113.741 44.0899 113.15 43.8455 112.533 43.8448H54.6333Z" fill="#3F3D56"/>
<path d="M61.6226 58.7641C63.168 58.7641 64.4207 57.515 64.4207 55.9741C64.4207 54.4333 63.168 53.1841 61.6226 53.1841C60.0772 53.1841 58.8245 54.4333 58.8245 55.9741C58.8245 57.515 60.0772 58.7641 61.6226 58.7641Z" fill="#2F2E41"/>
<path d="M59.4385 54.4698C59.8907 54.019 59.9823 53.3794 59.6432 53.0412C59.3041 52.7031 58.6626 52.7945 58.2104 53.2453C57.7583 53.6962 57.6666 54.3358 58.0058 54.6739C58.3449 55.0121 58.9864 54.9207 59.4385 54.4698Z" fill="#2F2E41"/>
<path d="M64.539 53.5838C64.7274 53.1441 64.4034 52.5845 63.8154 52.3341C63.2273 52.0836 62.5979 52.2371 62.4095 52.6768C62.2211 53.1166 62.5451 53.6761 63.1331 53.9266C63.7212 54.1771 64.3506 54.0236 64.539 53.5838Z" fill="#2F2E41"/>
<path d="M61.7113 59.008C63.0228 59.008 64.086 57.9479 64.086 56.6402C64.086 55.3325 63.0228 54.2723 61.7113 54.2723C60.3998 54.2723 59.3365 55.3325 59.3365 56.6402C59.3365 57.9479 60.3998 59.008 61.7113 59.008Z" fill="#FFB8B8"/>
<path d="M59.2161 55.1508C59.7587 55.5237 60.4028 55.7222 61.0619 55.7196C60.8268 55.8821 60.5592 55.9919 60.2774 56.0414C61.1537 56.2288 62.0593 56.2339 62.9377 56.0563C63.1329 56.0251 63.3213 55.9606 63.4946 55.8656C63.5809 55.8175 63.6561 55.7518 63.7154 55.6729C63.7746 55.5939 63.8165 55.5034 63.8383 55.4072C63.8967 55.0747 63.6369 54.7727 63.3669 54.5691C62.9535 54.2622 62.4768 54.0508 61.9714 53.9501C61.466 53.8494 60.9445 53.8619 60.4445 53.9869C60.1114 54.0537 59.8083 54.2245 59.579 54.4746C59.367 54.736 59.3042 55.1389 59.5062 55.4081L59.2161 55.1508Z" fill="#2F2E41"/>
<path d="M26.6603 76.4518C26.5908 76.2273 26.5715 75.9904 26.6038 75.7577C26.6361 75.5251 26.7192 75.3023 26.8472 75.1051C26.9752 74.9079 27.145 74.7411 27.3447 74.6164C27.5443 74.4917 27.7689 74.4122 28.0028 74.3834L35.7027 65.4121L37.4986 67.2923L29.829 75.8942C29.8514 76.289 29.7278 76.6783 29.4815 76.9884C29.2353 77.2984 28.8836 77.5076 28.493 77.5763C28.1024 77.6451 27.7001 77.5685 27.3623 77.3613C27.0245 77.154 26.7747 76.8304 26.6603 76.4518Z" fill="#A0616A"/>
<path d="M33.1977 66.8129C33.1898 66.7165 33.2029 66.6196 33.236 66.5287C33.2692 66.4378 33.3216 66.3551 33.3897 66.2863L35.7685 63.8811C36.0612 63.4813 36.501 63.2135 36.9914 63.1366C37.4818 63.0596 37.9828 63.1798 38.3844 63.4707C38.7861 63.7616 39.0556 64.1995 39.1339 64.6883C39.2122 65.1771 39.0928 65.6769 38.802 66.0781L37.2203 69.0777C37.1751 69.1633 37.112 69.2382 37.0352 69.2972C36.9584 69.3563 36.8698 69.3982 36.7753 69.4201C36.6808 69.4419 36.5827 69.4432 36.4877 69.4238C36.3926 69.4044 36.3029 69.3649 36.2246 69.3078L33.4722 67.3021C33.3938 67.245 33.3287 67.1718 33.2814 67.0874C33.234 67.003 33.2054 66.9094 33.1977 66.8129Z" fill="#559998"/>
<path d="M38.7834 61.3083C40.8181 61.3083 42.4676 59.6637 42.4676 57.6349C42.4676 55.6061 40.8181 53.9615 38.7834 53.9615C36.7487 53.9615 35.0992 55.6061 35.0992 57.6349C35.0992 59.6637 36.7487 61.3083 38.7834 61.3083Z" fill="#A0616A"/>
<path d="M36.7801 74.0731C36.7069 74.0188 36.6456 73.9502 36.6 73.8713C36.5545 73.7925 36.5256 73.7052 36.5152 73.6148C36.2606 71.4918 35.8899 69.3844 35.4049 67.3017C35.1902 66.3658 35.3235 65.384 35.7802 64.5388C36.2368 63.6936 36.9857 63.0425 37.8876 62.7064C38.7895 62.3703 39.7831 62.3721 40.6838 62.7116C41.5845 63.051 42.3309 63.705 42.7844 64.5519C44.2333 67.2631 44.3439 70.9856 44.3243 72.4602C44.322 72.6176 44.2645 72.7692 44.1616 72.8886C44.0587 73.0079 43.917 73.0875 43.7613 73.1134L37.2971 74.1983C37.2594 74.2046 37.2212 74.2078 37.183 74.2078C37.0376 74.2077 36.8962 74.1605 36.7801 74.0731Z" fill="#2F2E41"/>
<path d="M50.7361 62.1124C50.7177 62.1931 50.7057 62.2751 50.7003 62.3577L44.2566 66.0642L42.6904 65.1652L41.0208 67.3446L43.6383 69.2048C43.8498 69.3551 44.1044 69.433 44.364 69.4267C44.6236 69.4203 44.8742 69.3302 45.078 69.1699L51.7225 63.9432C52.0224 64.0539 52.3489 64.0709 52.6587 63.9921C52.9685 63.9132 53.2469 63.7421 53.4568 63.5016C53.6667 63.2611 53.7983 62.9626 53.8339 62.6458C53.8695 62.3289 53.8075 62.0088 53.6562 61.7279C53.5049 61.4471 53.2714 61.2188 52.9868 61.0735C52.7022 60.9282 52.38 60.8727 52.063 60.9144C51.746 60.9562 51.4493 61.0931 51.2122 61.3071C50.9752 61.5211 50.8092 61.802 50.7361 62.1124Z" fill="#A0616A"/>
<path d="M44.0411 66.2397L41.9586 68.931C41.8993 69.0076 41.8242 69.0705 41.7384 69.1155C41.6525 69.1605 41.5579 69.1866 41.4611 69.1919C41.3642 69.1971 41.2674 69.1816 41.1771 69.1462C41.0868 69.1108 41.0053 69.0564 40.938 68.9867L38.5804 66.5457C38.1893 66.2411 37.9352 65.7944 37.8739 65.3034C37.8126 64.8124 37.949 64.3171 38.2533 63.9263C38.5576 63.5354 39.0049 63.2808 39.4972 63.2182C39.9895 63.1557 40.4865 63.2903 40.8794 63.5926L43.8363 65.2413C43.921 65.2885 43.9944 65.3534 44.0517 65.4314C44.1089 65.5095 44.1486 65.599 44.168 65.6937C44.1875 65.7885 44.1862 65.8863 44.1643 65.9805C44.1424 66.0748 44.1004 66.1632 44.0411 66.2397Z" fill="#559998"/>
<path d="M47.2878 107.154L49.1268 107.154L49.5597 100.104L47.2875 100.081L47.2878 107.154Z" fill="#A0616A"/>
<path d="M46.8187 106.555L50.4403 106.555H50.4404C50.7435 106.555 51.0437 106.614 51.3237 106.73C51.6037 106.846 51.8581 107.015 52.0724 107.229C52.2867 107.443 52.4568 107.696 52.5727 107.975C52.6887 108.255 52.7484 108.554 52.7484 108.856V108.931L46.8188 108.931L46.8187 106.555Z" fill="#2F2E41"/>
<path d="M29.7378 107.154L31.5768 107.154L32.4516 100.081L29.7375 100.081L29.7378 107.154Z" fill="#A0616A"/>
<path d="M29.2687 106.555L32.8903 106.555H32.8905C33.1935 106.555 33.4937 106.614 33.7737 106.73C34.0537 106.846 34.3081 107.015 34.5224 107.229C34.7368 107.443 34.9068 107.696 35.0227 107.975C35.1387 108.255 35.1984 108.554 35.1984 108.856V108.931L29.2688 108.931L29.2687 106.555Z" fill="#2F2E41"/>
<path d="M31.7421 103.48L29.4598 103.184C29.3645 103.171 29.2729 103.139 29.1912 103.088C29.1095 103.038 29.0395 102.97 28.9861 102.89C28.9326 102.811 28.8969 102.721 28.8813 102.626C28.8656 102.531 28.8704 102.434 28.8954 102.342L32.2244 86.0302C32.5554 84.4466 32.7844 82.8436 32.91 81.2309C33.0072 79.9187 33.3924 78.0631 34.6758 76.6757C35.1977 76.1064 35.6848 75.5063 36.1345 74.8786L37.1422 73.4874L43.855 72.4225L43.8596 72.5053C44.1496 77.824 45.5351 83.0261 47.9299 87.7874C49.0071 89.9288 49.6254 92.2704 49.7454 94.6631L50.1258 102.059C50.1306 102.153 50.1156 102.247 50.082 102.334C50.0483 102.422 49.9967 102.502 49.9304 102.568C49.8643 102.635 49.7847 102.687 49.6969 102.721C49.6092 102.756 49.5151 102.771 49.421 102.766L47.2393 102.667C47.0914 102.66 46.9499 102.605 46.8364 102.51C46.723 102.415 46.6439 102.286 46.6113 102.142L44.7898 94.0387C44.7734 93.9664 44.7419 93.8984 44.6975 93.839L38.9809 86.2392C38.9401 86.185 38.8853 86.1428 38.8224 86.1173C38.7595 86.0917 38.6907 86.0836 38.6236 86.094C38.5564 86.1043 38.4933 86.1327 38.4411 86.176C38.3888 86.2193 38.3494 86.276 38.3269 86.34L32.4665 103.035C32.4198 103.167 32.3334 103.281 32.2192 103.362C32.1049 103.442 31.9685 103.486 31.8285 103.486C31.7996 103.486 31.7707 103.484 31.7421 103.48Z" fill="#2F2E41"/>
<path d="M34.7098 55.0852C35.0024 54.2007 35.2184 53.2927 35.3555 52.3714C35.3985 51.8349 35.2607 51.2578 34.8689 50.8877C34.1357 50.195 32.89 50.5249 32.1232 51.1804C31.0151 52.1278 30.4624 53.5837 30.2535 55.0242C30.0446 56.4647 30.1365 57.9296 30.0863 59.3842C30.036 60.8388 29.8273 62.3345 29.0836 63.5868C28.3398 64.8392 26.9597 65.8005 25.5039 65.6939C24.9163 65.6623 24.3583 65.4265 23.9268 65.0275C23.715 64.8266 23.5546 64.578 23.459 64.3025C23.3635 64.027 23.3356 63.7327 23.3776 63.4443C22.6335 64.7727 23.0107 66.5733 24.1206 67.6176C25.2304 68.662 26.9376 68.9572 28.3966 68.5113C29.8557 68.0654 31.0566 66.9474 31.7738 65.6043C32.4911 64.2613 32.754 62.7098 32.7159 61.1887C32.6866 60.0205 32.4875 58.8429 32.6855 57.6912C32.8834 56.5395 33.6063 55.3701 34.7462 55.0989L34.7098 55.0852Z" fill="#2F2E41"/>
<path d="M39.8287 56.5994C40.0231 57.2467 40.7664 57.6459 41.4352 57.5364C42.1039 57.4269 42.6538 56.8778 42.857 56.2332C43.0407 55.5748 42.9655 54.8713 42.6467 54.2664C42.4711 53.9037 42.2254 53.5792 41.9238 53.3114C41.6222 53.0435 41.2706 52.8376 40.8891 52.7054C40.5055 52.5786 40.0969 52.5456 39.6978 52.6092C39.2987 52.6728 38.9207 52.8311 38.5958 53.0708C38.5612 52.9253 38.4883 52.7917 38.3847 52.6837C38.2811 52.5757 38.1506 52.4972 38.0064 52.4562C37.7161 52.3782 37.4097 52.3827 37.1219 52.4692C36.2925 52.7049 35.5738 53.2262 35.0936 53.9405C34.6195 54.6526 34.3058 55.4587 34.1743 56.3033C33.948 57.5699 34.0314 58.9539 34.7449 60.0259C35.4583 61.0979 36.9179 61.7309 38.102 61.2198C38.1758 60.8434 38.0009 60.4645 37.7986 60.1383C37.5962 59.8122 37.3564 59.4945 37.2786 59.1189C37.2009 58.7433 37.3499 58.2839 37.7143 58.1611C38.0251 58.0563 38.3565 58.2261 38.684 58.2466C38.87 58.2582 39.0558 58.2209 39.2227 58.1383C39.3896 58.0558 39.5319 57.9309 39.6351 57.7763C39.7384 57.6216 39.799 57.4426 39.811 57.2572C39.823 57.0718 39.7858 56.8865 39.7033 56.7199L39.8287 56.5994Z" fill="#2F2E41"/>
<path d="M137.85 109H0.15C0.110218 109 0.0720643 108.984 0.0439339 108.956C0.0158034 108.928 0 108.89 0 108.85C0 108.811 0.0158034 108.773 0.0439339 108.745C0.0720643 108.717 0.110218 108.701 0.15 108.701H137.85C137.89 108.701 137.928 108.717 137.956 108.745C137.984 108.773 138 108.811 138 108.85C138 108.89 137.984 108.928 137.956 108.956C137.928 108.984 137.89 109 137.85 109Z" fill="#CCCCCC"/>
</g>
<defs>
<clipPath id="clip0_48_3943">
<rect width="138" height="109" fill="white"/>
</clipPath>
</defs>
</svg>
