<svg width="468" height="635" viewBox="0 0 468 635" fill="none" xmlns="http://www.w3.org/2000/svg">
<path d="M438.855 463.785L397.133 505.515L346.513 444.147L341.605 438.164L328.72 422.515C392.684 381.859 435.174 310.213 435.174 229.054C435.174 102.79 332.401 0 206.159 0H1.07375V79.7777H206.313C288.531 79.7777 355.563 146.822 355.563 229.054C355.563 285.512 324.118 334.913 277.64 360.227L205.852 272.778L203.245 269.863C182.383 248.999 154.773 237.646 125.322 237.646H110.289C49.3923 237.646 0 287.046 0 347.8C0 379.404 13.3451 407.787 34.6667 427.885C23.0088 445.374 16.2596 466.239 16.2596 488.638V635H96.3304V488.792C96.3304 472.069 110.136 458.568 127.162 458.568V458.108H206.466C221.805 458.108 236.838 456.574 251.41 453.659L285.156 494.775L290.065 500.759L340.531 562.126L296.661 605.85L325.805 635H439.929L468 606.924V492.781L438.855 463.785ZM110.136 378.331C93.4159 378.331 79.764 364.676 79.764 347.954C79.764 331.078 93.4159 317.577 110.136 317.577H125.168C132.838 317.577 140.047 320.338 145.569 325.401L189.133 378.484H110.136V378.331Z" fill="#0A43CC"/>
</svg>
